<svg width="20" height="20" viewBox="0 0 20 20" fill="none" xmlns="http://www.w3.org/2000/svg">
<g id="Icon">
<path id="&#240;&#159;&#142;&#168; Icon &#208;&#161;olor" fill-rule="evenodd" clip-rule="evenodd" d="M15.8333 9.16668H10.8333V4.16668C10.8333 3.70584 10.4599 3.33334 9.99992 3.33334C9.53992 3.33334 9.16659 3.70584 9.16659 4.16668V9.16668H4.16659C3.70659 9.16668 3.33325 9.53918 3.33325 10C3.33325 10.4608 3.70659 10.8333 4.16659 10.8333H9.16659V15.8333C9.16659 16.2942 9.53992 16.6667 9.99992 16.6667C10.4599 16.6667 10.8333 16.2942 10.8333 15.8333V10.8333H15.8333C16.2933 10.8333 16.6666 10.4608 16.6666 10C16.6666 9.53918 16.2933 9.16668 15.8333 9.16668" fill="#223345"/>
<mask id="mask0_0_103" style="mask-type:luminance" maskUnits="userSpaceOnUse" x="3" y="3" width="14" height="14">
<path id="&#240;&#159;&#142;&#168; Icon &#208;&#161;olor_2" fill-rule="evenodd" clip-rule="evenodd" d="M15.8333 9.16668H10.8333V4.16668C10.8333 3.70584 10.4599 3.33334 9.99992 3.33334C9.53992 3.33334 9.16659 3.70584 9.16659 4.16668V9.16668H4.16659C3.70659 9.16668 3.33325 9.53918 3.33325 10C3.33325 10.4608 3.70659 10.8333 4.16659 10.8333H9.16659V15.8333C9.16659 16.2942 9.53992 16.6667 9.99992 16.6667C10.4599 16.6667 10.8333 16.2942 10.8333 15.8333V10.8333H15.8333C16.2933 10.8333 16.6666 10.4608 16.6666 10C16.6666 9.53918 16.2933 9.16668 15.8333 9.16668" fill="white"/>
</mask>
<g mask="url(#mask0_0_103)">
</g>
</g>
</svg>
