<svg width="20" height="20" viewBox="0 0 20 20" fill="none" xmlns="http://www.w3.org/2000/svg">
<g id="arrow-circle-down-fill" opacity="1">
<path id="&#240;&#159;&#142;&#168; Icon &#208;&#161;olor_2" fill-rule="evenodd" clip-rule="evenodd" d="M15.8333 3.33334C15.375 3.33334 15 3.70834 15 4.16667V16.6667C15 17.125 15.375 17.5 15.8333 17.5C16.2916 17.5 16.6666 17.125 16.6666 16.6667V4.16667C16.6666 3.70834 16.2916 3.33334 15.8333 3.33334ZM9.99998 6.66667C9.54165 6.66667 9.16665 7.04167 9.16665 7.5V16.6667C9.16665 17.125 9.54165 17.5 9.99998 17.5C10.4583 17.5 10.8333 17.125 10.8333 16.6667V7.5C10.8333 7.04167 10.4583 6.66667 9.99998 6.66667ZM3.33331 10.8333C3.33331 10.375 3.70831 10 4.16665 10C4.62498 10 4.99998 10.375 4.99998 10.8333V16.6667C4.99998 17.125 4.62498 17.5 4.16665 17.5C3.70831 17.5 3.33331 17.125 3.33331 16.6667V10.8333Z" fill="white"/>
</g>
</svg>
