<svg width="20" height="20" viewBox="0 0 20 20" fill="none" xmlns="http://www.w3.org/2000/svg">
<g id="arrow-circle-down-fill" opacity="1">
<path id="&#240;&#159;&#142;&#168; Icon &#208;&#161;olor" fill-rule="evenodd" clip-rule="evenodd" d="M13.3335 16.6565H15.8252L15.8335 9.67651L9.99852 3.68318L4.17185 9.64234L4.16685 16.6565H6.66685V10.8232C6.66685 10.3623 7.03935 9.98984 7.50018 9.98984H12.5002C12.9602 9.98984 13.3335 10.3623 13.3335 10.8232V16.6565ZM11.6668 16.6565H8.33352V11.6565H11.6668V16.6565ZM17.0202 8.47734L10.596 1.90734C10.2818 1.58651 9.71852 1.58651 9.40435 1.90734L2.97935 8.47818C2.67518 8.79068 2.50018 9.22734 2.50018 9.67651V16.6565C2.50018 17.5757 3.20602 18.3232 4.07352 18.3232H7.50018H12.5002H15.926C16.7935 18.3232 17.5002 17.5757 17.5002 16.6565V9.67651C17.5002 9.22734 17.3252 8.79068 17.0202 8.47734V8.47734Z" fill="white"/>
</g>
</svg>
