<svg width="20" height="20" viewBox="0 0 20 20" fill="none" xmlns="http://www.w3.org/2000/svg">
<g id="arrow-circle-down-fill" opacity="1">
<path id="Shape" fill-rule="evenodd" clip-rule="evenodd" d="M9.51246 2.52652L9.61003 2.56155L9.71563 2.61991L9.79897 2.68365L11.1836 3.92161L12.5682 2.68369C12.7556 2.51604 13.0111 2.46181 13.2488 2.5306L13.3493 2.56764L13.4461 2.61991L13.5294 2.68366L14.9162 3.92344L16.3015 2.6989C16.4608 2.55816 16.6708 2.49718 16.875 2.52456L16.9764 2.54565L17.0752 2.58171C17.2637 2.66669 17.4047 2.82731 17.4673 3.02989L17.4919 3.13452L17.5 3.23895V14.663C17.5 16.124 16.3541 17.3221 14.9097 17.4057L14.843 17.407L5.15126 17.4105C3.79348 17.3616 2.68008 16.3242 2.51957 14.9887L2.50493 14.8271L2.5 14.663V13.3538C2.5 13.0313 2.71294 12.7538 3.02313 12.6622L3.11899 12.6405L3.22096 12.6328L4.86708 12.6326L4.86731 3.23898C4.86731 3.02631 4.96083 2.82849 5.1168 2.69364L5.19985 2.63169L5.29244 2.58157C5.48102 2.49699 5.69461 2.49796 5.88773 2.58512L5.98237 2.63588L6.06598 2.69899L7.45092 3.92344L8.83788 2.68369C9.02527 2.51604 9.28075 2.46181 9.51246 2.52652ZM13.0485 4.18777L11.6643 5.42624C11.4502 5.61784 11.147 5.66129 10.8832 5.54229L10.7864 5.49001L10.7031 5.42627L9.31861 4.18777L7.93405 5.42639C7.72094 5.61711 7.4192 5.66106 7.15593 5.54373L7.05926 5.49215L6.97583 5.42905L6.30854 4.83899V12.6326L12.726 12.6328C13.0484 12.6328 13.326 12.8457 13.4176 13.1559L13.4393 13.2518L13.447 13.3538V14.663C13.447 15.3826 14.0329 15.9685 14.7525 15.9685C15.3879 15.9685 15.9247 15.5098 16.0363 14.906L16.0528 14.7834L16.0581 14.663L16.0576 4.83899L15.3916 5.42892C15.1774 5.61831 14.8754 5.66059 14.6129 5.54187L14.5165 5.48977L14.4335 5.42626L13.0485 4.18777ZM12.0049 14.0741H3.94147L3.94189 14.663C3.94189 15.2984 4.40054 15.8351 5.00441 15.9467L5.12703 15.9632L5.24749 15.9685L12.336 15.9683L12.3223 15.9439C12.1785 15.6718 12.0808 15.3757 12.0348 15.0646L12.0134 14.8762L12.005 14.663L12.0049 14.0741ZM14.1069 9.81715C14.5051 9.81715 14.8279 10.1399 14.8279 10.5381C14.8279 10.8606 14.6149 11.1381 14.3048 11.2297L14.2089 11.2514L14.1069 11.2591H8.27835C7.88016 11.2591 7.55739 10.9363 7.55739 10.5381C7.55739 10.2157 7.77033 9.93816 8.08051 9.84655L8.17637 9.82479L8.27835 9.81715H14.1069ZM11.5961 7.30639C11.9943 7.30639 12.3171 7.62916 12.3171 8.02735C12.3171 8.34979 12.1042 8.62731 11.794 8.71892L11.6981 8.74068L11.5961 8.74832H8.27835C7.88016 8.74832 7.55739 8.42555 7.55739 8.02735C7.55739 7.70492 7.77033 7.4274 8.08051 7.33579L8.17637 7.31403L8.27835 7.30639H11.5961Z" fill="white"/>
</g>
</svg>
