<svg width="20" height="20" viewBox="0 0 20 20" fill="none" xmlns="http://www.w3.org/2000/svg">
<g id="arrow-circle-down-fill" opacity="1">
<path id="&#240;&#159;&#142;&#168; Icon &#208;&#161;olor_2" fill-rule="evenodd" clip-rule="evenodd" d="M9.99998 13.3333C9.53998 13.3333 9.16665 12.96 9.16665 12.5C9.16665 12.04 9.53998 11.6667 9.99998 11.6667C10.46 11.6667 10.8333 12.04 10.8333 12.5C10.8333 12.96 10.46 13.3333 9.99998 13.3333M9.99998 10C8.62165 10 7.49998 11.1217 7.49998 12.5C7.49998 13.8783 8.62165 15 9.99998 15C11.3783 15 12.5 13.8783 12.5 12.5C12.5 11.1217 11.3783 10 9.99998 10M15 15.8333C15 16.2933 14.6266 16.6667 14.1666 16.6667H5.83331C5.37331 16.6667 4.99998 16.2933 4.99998 15.8333V9.16666C4.99998 8.70666 5.37331 8.33333 5.83331 8.33333H6.66665H8.33331H11.6666H13.3333H14.1666C14.6266 8.33333 15 8.70666 15 9.16666V15.8333ZM8.33331 5.0925C8.33331 4.1225 9.08081 3.33333 9.99998 3.33333C10.9191 3.33333 11.6666 4.1225 11.6666 5.0925V6.66666H8.33331V5.0925ZM14.1666 6.66666H13.3333V5.0925C13.3333 3.20416 11.8383 1.66666 9.99998 1.66666C8.16165 1.66666 6.66665 3.20416 6.66665 5.0925V6.66666H5.83331C4.45498 6.66666 3.33331 7.78833 3.33331 9.16666V15.8333C3.33331 17.2117 4.45498 18.3333 5.83331 18.3333H14.1666C15.545 18.3333 16.6666 17.2117 16.6666 15.8333V9.16666C16.6666 7.78833 15.545 6.66666 14.1666 6.66666V6.66666Z" fill="white"/>
</g>
</svg>
