<svg width="30" height="30" viewBox="0 0 30 30" fill="none" xmlns="http://www.w3.org/2000/svg">
<g id="Logo">
<path id="Rectangle" fill-rule="evenodd" clip-rule="evenodd" d="M17.0722 0.874626L29.1637 12.92C30.1585 13.911 30.1585 15.5176 29.1637 16.5085L25.2299 20.4274L14.9549 10.2033L4.7124 20.4597L0.746049 16.5085C-0.248683 15.5176 -0.248683 13.911 0.746049 12.92L12.8376 0.874626C14.0083 -0.291542 15.9015 -0.291542 17.0722 0.874626Z" fill="#11A1FD"/>
<path id="Rectangle_2" fill-rule="evenodd" clip-rule="evenodd" d="M16.3664 16.5216L20.9586 21.0963C21.9533 22.0872 21.9533 23.6938 20.9586 24.6847L16.3664 29.2594C15.5859 30.0369 14.3238 30.0369 13.5434 29.2594L8.95113 24.6847C7.9564 23.6938 7.9564 22.0872 8.95113 21.0963L13.5434 16.5216C14.3238 15.7441 15.5859 15.7441 16.3664 16.5216Z" fill="#5A75F8"/>
</g>
</svg>
