<svg width="20" height="20" viewBox="0 0 20 20" fill="none" xmlns="http://www.w3.org/2000/svg">
<g id="arrow-circle-down-fill" opacity="1">
<path id="&#240;&#159;&#142;&#168; Icon &#208;&#161;olor_2" fill-rule="evenodd" clip-rule="evenodd" d="M8.80044 7.03292C9.28877 7.52042 9.28877 8.31292 8.80044 8.80042C8.3121 9.28875 7.52127 9.28875 7.03294 8.80042C6.5446 8.31292 6.5446 7.52042 7.03294 7.03292C7.52127 6.54459 8.3121 6.54459 8.80044 7.03292M4.86169 10.743L9.88835 15.7705L15.77 9.88884L10.7434 4.86134L4.25585 4.25634L4.86169 10.743ZM9.88835 17.4988C9.50085 17.4988 9.11419 17.3513 8.81835 17.0572L3.47085 11.7088C3.33335 11.5722 3.24835 11.3905 3.23002 11.1972L2.50335 3.4105C2.48085 3.16384 2.56835 2.91967 2.74419 2.74384C2.92002 2.568 3.16335 2.47884 3.41085 2.50384L11.1975 3.2305C11.3909 3.248 11.5717 3.333 11.7092 3.4705L17.0567 8.818C17.3425 9.10384 17.5 9.48384 17.5 9.88884C17.5 10.2938 17.3425 10.6738 17.0567 10.9597L10.9592 17.0563C10.6642 17.3513 10.2767 17.4988 9.88835 17.4988V17.4988Z" fill="white"/>
</g>
</svg>
