<svg width="20" height="20" viewBox="0 0 20 20" fill="none" xmlns="http://www.w3.org/2000/svg">
<g id="arrow-circle-down-fill" opacity="0.5">
<path id="&#240;&#159;&#142;&#168; Icon &#208;&#161;olor" fill-rule="evenodd" clip-rule="evenodd" d="M15.8334 16.25C15.8334 16.9408 15.2734 17.5 14.5834 17.5C13.8934 17.5 13.3334 16.9408 13.3334 16.25C13.3334 15.5592 13.8934 15 14.5834 15C15.2734 15 15.8334 15.5592 15.8334 16.25V16.25ZM7.50002 16.25C7.50002 16.9408 6.94002 17.5 6.25002 17.5C5.56002 17.5 5.00002 16.9408 5.00002 16.25C5.00002 15.5592 5.56002 15 6.25002 15C6.94002 15 7.50002 15.5592 7.50002 16.25V16.25ZM13.6517 11.6667H7.30335L5.93919 6.66667H16.1517L13.6517 11.6667ZM17.5692 5.79C17.2634 5.295 16.7334 5 16.1517 5H5.48502L4.97085 3.11417C4.87169 2.75167 4.54252 2.5 4.16669 2.5H2.50002C2.03919 2.5 1.66669 2.87333 1.66669 3.33333C1.66669 3.79333 2.03919 4.16667 2.50002 4.16667H3.53002L5.86252 12.7192C5.96169 13.0817 6.29085 13.3333 6.66669 13.3333H14.1667C14.4825 13.3333 14.7709 13.155 14.9125 12.8725L17.6425 7.41167C17.9025 6.89083 17.875 6.285 17.5692 5.79V5.79Z" fill="white"/>
</g>
</svg>
